<svg xmlns="http://www.w3.org/2000/svg" version="1.1" xmlns:xlink="http://www.w3.org/1999/xlink" xmlns:svgjs="http://svgjs.dev/svgjs" width="2000" height="1247" viewBox="0 0 2000 1247"><g transform="matrix(1,0,0,1,-1.2121212121212466,0.504858299595071)"><svg viewBox="0 0 396 247" data-background-color="#282634" preserveAspectRatio="xMidYMid meet" height="1247" width="2000" xmlns="http://www.w3.org/2000/svg" xmlns:xlink="http://www.w3.org/1999/xlink"><g id="tight-bounds" transform="matrix(1,0,0,1,0.2400000000000091,-0.09999999999999432)"><svg viewBox="0 0 395.52 247.2" height="247.2" width="395.52"><g><svg></svg></g><g><svg viewBox="0 0 395.52 247.2" height="247.2" width="395.52"><g transform="matrix(1,0,0,1,39.55199999999999,95.20369230769231)"><svg viewBox="0 0 316.416 56.79261538461539" height="56.79261538461539" width="316.416"><g><svg viewBox="0 0 316.416 56.79261538461539" height="56.79261538461539" width="316.416"><g><svg viewBox="0 0 316.416 56.79261538461539" height="56.79261538461539" width="316.416"><g><svg viewBox="0 0 316.416 56.79261538461539" height="56.79261538461539" width="316.416"><g><svg viewBox="0 0 316.416 56.79261538461539" height="56.79261538461539" width="316.416"><g transform="matrix(1,0,0,1,0,0)"><svg width="316.416" viewBox="0 -50 243.74000549316406 43.75" height="56.79261538461539" data-palette-color="#ff4057"><path d="M12.5-6.25L0-6.25 0-50 12.5-50 12.5-43.75 18.75-43.75 18.75-37.5 25-37.5 25-43.75 31.25-43.75 31.25-50 43.75-50 43.75-6.25 31.25-6.25 31.25-31.25 25-31.25 25-18.75 18.75-18.75 18.75-31.25 12.5-31.25 12.5-6.25ZM87.5-6.25L56.25-6.25 56.25-12.5 50-12.5 50-50 62.5-50 62.5-12.5 81.25-12.5 81.25-50 93.75-50 93.75-12.5 87.5-12.5 87.5-6.25ZM137.5-6.25L106.25-6.25 106.25-12.5 100-12.5 100-18.75 112.5-18.75 112.5-12.5 131.25-12.5 131.25-25 106.25-25 106.25-31.25 100-31.25 100-43.75 106.25-43.75 106.25-50 137.5-50 137.5-43.75 143.75-43.75 143.75-37.5 131.25-37.5 131.25-43.75 112.5-43.75 112.5-31.25 137.5-31.25 137.5-25 143.75-25 143.75-12.5 137.5-12.5 137.5-6.25ZM193.74-6.25L156.24-6.25 156.24-12.5 168.74-12.5 168.74-43.75 156.24-43.75 156.24-50 193.74-50 193.74-43.75 181.24-43.75 181.24-12.5 193.74-12.5 193.74-6.25ZM237.49-6.25L212.49-6.25 212.49-12.5 206.24-12.5 206.24-18.75 199.99-18.75 199.99-37.5 206.24-37.5 206.24-43.75 212.49-43.75 212.49-50 237.49-50 237.49-43.75 243.74-43.75 243.74-37.5 231.24-37.5 231.24-43.75 218.74-43.75 218.74-37.5 212.49-37.5 212.49-18.75 218.74-18.75 218.74-12.5 231.24-12.5 231.24-18.75 243.74-18.75 243.74-12.5 237.49-12.5 237.49-6.25Z" opacity="1" transform="matrix(1,0,0,1,0,0)" fill="#ff4057" class="undefined-text-0" data-fill-palette-color="primary" id="text-0"></path></svg></g></svg></g></svg></g></svg></g></svg></g></svg></g><g mask="url(#7abfb375-3c76-4cf3-bd2b-d8152259fc28)"><g transform="matrix(3.206887050389934, 0, 0, 3.206887050389934, 43.82942158128316, 1)"><svg xmlns="http://www.w3.org/2000/svg" xmlns:xlink="http://www.w3.org/1999/xlink" version="1.1" x="0" y="0" viewBox="2 8.538999557495117 96 76.46044158935547" enable-background="new 0 0 100 100" xml:space="preserve" height="76.46044158935547" width="96" class="icon-none" data-fill-palette-color="accent" id="none"><path d="M95 8.539L53 22.986v50.284c-1.832-0.864-4.27-1.001-6.694-0.193-4.192 1.397-6.74 5.078-5.692 8.222 1.048 3.144 5.295 4.559 9.487 3.162 3.742-1.247 6.166-4.314 5.899-7.195V32l36-12.397v32.681c-1.835-0.876-4.286-1.019-6.722-0.207-4.192 1.397-6.74 5.078-5.692 8.222 1.048 3.144 5.295 4.559 9.487 3.162 3.525-1.175 5.878-3.965 5.918-6.692H95V8.539z" fill="#dcdcdc" data-fill-palette-color="accent"></path><g fill="#dcdcdc" data-fill-palette-color="accent"><path d="M19 9v43c-1.869-0.892-4.481-0.971-6.963-0.143-4.269 1.423-6.865 5.172-5.798 8.374 1.067 3.202 5.393 4.644 9.663 3.221 3.59-1.197 6.047-4.038 6.087-6.816H22V23c0 0 12.926 3.741 17 18C39 24.704 25 22 19 9z" fill="#dcdcdc" data-fill-palette-color="accent"></path><g fill="#dcdcdc" data-fill-palette-color="accent"><path d="M37.423 79H2v2h35.476C37.371 80.333 37.355 79.664 37.423 79z" fill="#dcdcdc" data-fill-palette-color="accent"></path><path d="M98 81v-2H58.9c-0.115 0.68-0.31 1.351-0.591 2H98z" fill="#dcdcdc" data-fill-palette-color="accent"></path><path d="M5.078 64H2v2h5.87C6.789 65.499 5.842 64.824 5.078 64z" fill="#dcdcdc" data-fill-palette-color="accent"></path><path d="M98 66v-2h-3.769c-0.978 0.804-2.112 1.487-3.377 2H98z" fill="#dcdcdc" data-fill-palette-color="accent"></path><path d="M78.401 64H59v2h22.155C80.082 65.501 79.157 64.82 78.401 64z" fill="#dcdcdc" data-fill-palette-color="accent"></path><path d="M21.09 64c-0.996 0.803-2.149 1.486-3.433 2H50v-2H21.09z" fill="#dcdcdc" data-fill-palette-color="accent"></path><rect x="25" y="49" width="25" height="2" fill="#dcdcdc" data-fill-palette-color="accent"></rect><path d="M11.125 49H2v2h5.25c1.106-0.825 2.395-1.508 3.839-1.99C11.101 49.006 11.113 49.004 11.125 49z" fill="#dcdcdc" data-fill-palette-color="accent"></path><path d="M59 51h21.822c1.029-0.725 2.201-1.333 3.507-1.769 0.264-0.088 0.53-0.16 0.796-0.231H59V51z" fill="#dcdcdc" data-fill-palette-color="accent"></path><path d="M32.25 34H25v2h8.595C33.168 35.288 32.718 34.622 32.25 34z" fill="#dcdcdc" data-fill-palette-color="accent"></path><rect x="2" y="34" width="14" height="2" fill="#dcdcdc" data-fill-palette-color="accent"></rect><polygon points="59,36 89,36 89,34 59.406,34 59,34.14   " fill="#dcdcdc" data-fill-palette-color="accent"></polygon><path d="M41.551 36H50v-2h-8.898C41.277 34.642 41.425 35.311 41.551 36z" fill="#dcdcdc" data-fill-palette-color="accent"></path><path d="M32.734 21h18.028c0.335-0.378 0.762-0.678 1.263-0.851L55.366 19H30.686c0.004 0.004 0.008 0.007 0.011 0.011C31.377 19.668 32.059 20.328 32.734 21z" fill="#dcdcdc" data-fill-palette-color="accent"></path><rect x="2" y="19" width="14" height="2" fill="#dcdcdc" data-fill-palette-color="accent"></rect></g></g></svg></g></g></svg></g><defs><mask id="7abfb375-3c76-4cf3-bd2b-d8152259fc28"><rect width="640" height="400" fill="white"></rect><rect width="348.05760000000004" height="83.60736232369231" fill="black" x="145.97119999999998" y="158.19631883815384" id="transform-me" transform="matrix(1,0,0,1,-122.24000000000001,-76.4)"></rect></mask></defs></svg><rect width="395.52" height="247.2" fill="none" stroke="none" visibility="hidden"></rect></g></svg></g></svg>